<svg xmlns="http://www.w3.org/2000/svg" width="40" height="40" viewBox="0 0 40 40">
    <path fill="#FFFFFF" fill-rule="evenodd" d="M31.318 21.34a1.003 1.003 0 0 1 0 1.419l-5.79 5.79c-3.495 3.494-8.932 3.856-12.83 1.09l-1.828 1.828a1.678 1.678 0 0 1-2.372-.013 1.678 1.678 0 0 1-.013-2.372l1.827-1.828c-2.765-3.899-2.404-9.336 1.09-12.83l5.79-5.79a1.002 1.002 0 0 1 1.42 0l2.522 2.523 2.672-2.672a1.678 1.678 0 0 1 2.372.013c.658.659.664 1.72.013 2.372l-2.672 2.672 2.808 2.808L29 13.678a1.677 1.677 0 0 1 2.372.014c.659.658.665 1.72.013 2.371l-2.671 2.672 2.605 2.605zm-7.28-2.203l-3.223-3.223a1.518 1.518 0 0 0-2.148.012 1.519 1.519 0 0 0-.012 2.147l3.223 3.223c.59.59 1.551.584 2.148-.011a1.519 1.519 0 0 0 .011-2.148z"/>
</svg>
