<?xml version="1.0" encoding="UTF-8"?>
<svg width="40" height="40" viewBox="-10 -10 60 60" version="1.1" xmlns="http://www.w3.org/2000/svg" xmlns:xlink="http://www.w3.org/1999/xlink">
    <!-- Generator: Sketch 50.2 (55047) - http://www.bohemiancoding.com/sketch -->
    <title>icon/other/chat</title>
    <desc>Created with Sketch.</desc>
    <defs></defs>
    <g id="icon/other/chat" stroke="none" stroke-width="1" fill="none" fill-rule="evenodd">
        <path d="M19.6884308,0.615261538 C30.5616615,0.615261538 39.3770462,9.43003077 39.3770462,20.3038769 C39.3770462,31.1771077 30.5616615,39.9918769 19.6884308,39.9918769 C16.4361231,39.9918769 13.3708923,39.1986462 10.6675077,37.8023385 L3.45212308,39.7352615 C2.44658462,40.0054154 1.52658462,39.0848 1.79612308,38.0792615 L3.54196923,31.5641846 C1.31181538,28.3721846 -0.000184615385,24.4921846 -0.000184615385,20.3038769 C-0.000184615385,9.43003077 8.81458462,0.615261538 19.6884308,0.615261538 Z M20.8275692,22.2841231 L13.1900308,22.2841231 C11.8214154,22.2841231 10.7118769,23.4059692 10.7118769,24.7899692 C10.7118769,26.1733538 11.8214154,27.2958154 13.1900308,27.2958154 L20.8275692,27.2958154 C22.1961846,27.2958154 23.3057231,26.1733538 23.3057231,24.7899692 C23.3057231,23.4059692 22.1961846,22.2841231 20.8275692,22.2841231 Z M27.4333538,13.9986462 L13.1896615,13.9986462 C11.8216615,13.9986462 10.7121231,15.1204923 10.7121231,16.5038769 C10.7121231,17.8878769 11.8216615,19.0103385 13.1896615,19.0103385 L27.4333538,19.0103385 C28.8019692,19.0103385 29.9108923,17.8878769 29.9108923,16.5038769 C29.9108923,15.1204923 28.8019692,13.9986462 27.4333538,13.9986462 Z" id="Combined-Shape" fill="#FFFFFF"></path>
    </g>
</svg>
