<svg xmlns="http://www.w3.org/2000/svg" width="40" height="40" viewBox="0 0 40 40">
    <path fill="#FFFFFF" fill-rule="evenodd" d="M32.663 20.117v.006a2.793 2.793 0 0 1-2.785 2.784h-.114c-.195.725-.502 1.394-.864 2.063l.07.07a2.78 2.78 0 1 1-3.93 3.93l-.07-.07a10.38 10.38 0 0 1-2.063.864v.114a2.793 2.793 0 0 1-2.784 2.785h-.006a2.793 2.793 0 0 1-2.784-2.785v-.114a10.38 10.38 0 0 1-2.062-.864l-.07.07a2.78 2.78 0 0 1-3.93-3.93l.07-.07c-.363-.669-.67-1.338-.865-2.063h-.113a2.793 2.793 0 0 1-2.785-2.784v-.006a2.793 2.793 0 0 1 2.785-2.784h.113c.195-.725.502-1.394.865-2.063l-.07-.07a2.779 2.779 0 1 1 3.93-3.929l.07.07a10.406 10.406 0 0 1 2.062-.865v-.114a2.793 2.793 0 0 1 2.784-2.784h.006a2.793 2.793 0 0 1 2.784 2.784v.114c.725.224 1.422.502 2.063.865l.07-.07a2.779 2.779 0 0 1 3.93 3.93l-.07.07c.362.668.669 1.337.864 2.062h.114a2.793 2.793 0 0 1 2.785 2.784zm-12.543-3.9a3.914 3.914 0 0 0-3.902 3.903 3.913 3.913 0 0 0 3.902 3.902 3.913 3.913 0 0 0 3.902-3.902 3.913 3.913 0 0 0-3.902-3.902z"/>
</svg>
