<svg xmlns="http://www.w3.org/2000/svg" width="40" height="40" viewBox="0 0 40 40">
    <path fill="#FFFFFF" fill-rule="evenodd" d="M10.933 33C9.316 33 8 31.673 8 30.042v-7.38c0-1.632 1.316-2.96 2.933-2.96 1.618 0 2.934 1.328 2.934 2.96v7.38c0 1.631-1.316 2.958-2.934 2.958zm9.12-.037c-1.617 0-2.933-1.327-2.933-2.958V16.81c0-1.632 1.316-2.959 2.933-2.959 1.618 0 2.934 1.327 2.934 2.959v13.195c0 1.631-1.316 2.958-2.934 2.958zm9.12-.037c-1.617 0-2.933-1.326-2.933-2.958v-19.01C26.24 9.329 27.556 8 29.174 8c1.617 0 2.933 1.327 2.933 2.959v19.009c0 1.632-1.316 2.958-2.933 2.958z"/>
</svg>
